<svg width="174" height="230" viewBox="0 0 174 230" fill="none" xmlns="http://www.w3.org/2000/svg">
<path d="M131.462 131.462L131.006 131.006V131.918L131.462 131.462Z" fill="#100F0D"/>
<path d="M61.6855 112.064L64.1152 114.493V109.636L61.6855 112.064Z" fill="#100F0D"/>
<path d="M53.1137 150.861L42.7427 140.49V208.628C42.7427 220.432 52.3111 230 64.1151 230V198.809V168.586V161.862L53.1137 150.861Z" fill="#100F0D"/>
<path d="M152.379 21.3724L131.007 42.7425L109.634 64.1149L86.8746 86.8744L64.1151 64.1149L42.7427 42.7425V72.968V93.1208L61.6855 112.064L64.1151 109.636V94.338L71.763 101.988L86.8746 117.1L101.986 101.988L109.634 94.338L131.007 72.968L152.379 51.5955V80.3225V110.546V152.379V182.602V211.329C152.379 221.639 160.737 230 171.048 230H173.749V203.974V173.751V89.1755V58.9525V30.2255V7.30842e-06L152.379 21.3724Z" fill="#100F0D"/>
<path d="M116.351 116.351L109.634 123.065L101.237 131.462L86.8747 145.827L76.7971 135.749L72.5124 131.462L64.1152 123.065L57.3984 116.351L42.7427 101.695L36.6807 95.6329L21.3712 80.3225L0 58.9525V89.1755V173.751V203.974V230H2.70151C13.0126 230 21.3712 221.639 21.3712 211.329V182.602V152.379V110.546L36.6807 125.856L42.2869 131.462L42.7427 131.918L57.3984 146.574L64.1152 153.288L70.1773 159.35L71.7631 160.938L86.8747 176.05L101.986 160.938L109.634 153.288V168.586V198.809V230C121.438 230 131.007 220.432 131.007 208.628V203.395V189.959V161.232V131.918V131.006V101.695L116.351 116.351Z" fill="#100F0D"/>
</svg>
